<svg width="234" height="102" viewBox="0 0 234 102" fill="none" xmlns="http://www.w3.org/2000/svg">
<path d="M87.5379 72.62C87.5379 72.62 87.5379 63.573 87.5379 54.338C81.4255 61.828 74.581 68.5266 67.1309 74.3244C67.1522 76.3341 67.1647 78.3523 66.8447 80.334C66.7526 80.9131 66.6305 81.4921 66.4702 82.0749C65.8689 84.2521 64.897 86.3316 63.6689 88.2436C61.6497 91.3955 58.8097 94.5755 55.5242 96.5245C55.2173 96.7078 54.9017 96.8711 54.5861 97.0338C54.4852 97.0829 54.3844 97.1357 54.2836 97.1849C48.453 99.986 40.0979 101.527 39.4084 101.633C41.4231 101.874 43.4553 102 45.4913 102C48.5751 102 51.6501 101.735 54.6788 101.168C60.6822 100.047 66.6768 97.8902 71.9476 94.8814C76.3478 92.3655 80.3947 89.1042 83.3144 85.0065C84.627 83.1637 85.7036 81.1535 86.4357 79.0291C86.7933 77.9899 87.067 76.9253 87.2518 75.8449C87.2981 75.576 87.5886 72.62 87.5336 72.6242L87.5379 72.62Z" fill="#C9F8C9"/>
<path d="M0.825867 95.0849C0.733971 95.0686 0.642205 95.0504 0.550442 95.0322C0.457909 95.0138 0.365375 94.9955 0.272705 94.9791C4.12255 93.4619 7.90817 91.6139 11.5982 89.4574C10.1446 88.0963 8.81887 86.6115 7.66832 84.9981C6.35132 83.1553 5.27852 81.1492 4.54697 79.0211C4.18938 77.9814 3.91573 76.9174 3.73093 75.837C3.6846 75.5717 3.39405 72.6121 3.44856 72.6158V34.8862H23.8725V72.4895C23.8725 73.0291 23.8662 73.5702 23.8599 74.1121C23.8357 76.1907 23.8114 78.2797 24.1418 80.3298C24.1557 80.4171 24.1702 80.5044 24.1854 80.5915C38.957 68.277 51.2576 50.701 58.5617 29.659L71.6826 25.5455V25.5492C63.7676 48.6874 49.8162 67.6763 33.1643 80.1491C55.4448 67.4564 73.2146 43.8676 79.4064 14.9938L99.4515 9.50562C98.6142 13.6276 97.5796 17.7702 96.2838 21.9164C85.0634 57.8793 59.3271 84.3727 31.0715 92.9925C32.4041 94.3599 33.8816 95.5825 35.4623 96.5202C35.5062 96.5452 35.5497 96.5702 35.5931 96.5951C35.691 96.6514 35.7881 96.7071 35.8875 96.7606C37.326 97.552 38.8867 98.1226 40.485 98.5263C42.1678 98.9505 43.935 99.2723 45.6805 99.2522H45.8402C47.565 99.211 49.3361 98.8607 50.9938 98.4037V98.3958C52.1254 98.0862 53.2315 97.6783 54.2879 97.1727C48.453 99.9739 40.0979 101.515 39.4127 101.621C38.3732 101.499 37.3342 101.352 36.3039 101.16C30.6711 100.108 25.046 98.1446 20.0193 95.4204C13.6247 96.2805 7.182 96.1997 0.823822 95.0853L0.825867 95.0849Z" fill="#C9F8C9"/>
<path d="M34.152 24.6407L31.0384 25.6977L30.6569 24.5578C30.1048 22.9651 29.999 21.2501 30.3509 19.6008C30.7028 17.9517 31.4989 16.432 32.6519 15.2084C33.8043 14.0528 35.1602 13.1233 36.6503 12.4673C36.2592 13.531 35.8838 14.6478 35.5241 15.8177C34.8001 18.7103 34.3408 21.6637 34.152 24.6407ZM49.7489 22.917C47.9022 25.2504 45.8467 27.4082 43.6088 29.3635L44.6583 32.4997L45.7901 32.1153C47.383 31.594 48.8023 30.6407 49.8925 29.3603C50.9829 28.0796 51.7019 26.5215 51.9709 24.8566C52.1867 23.233 52.1005 21.5834 51.7169 19.9918C51.1157 20.9448 50.4597 21.92 49.7489 22.917ZM53.6213 2.78582C55.1314 7.79934 53.2311 13.9249 47.8117 21.5155C46.2915 23.4459 44.6061 25.238 42.7749 26.8713L42.5601 26.2296C42.2014 25.1746 41.4438 24.305 40.452 23.8096C39.4602 23.3143 38.3143 23.2333 37.2635 23.5844L36.6262 23.8007C36.8097 21.3434 37.2074 18.9073 37.8149 16.5203C40.5245 7.59624 44.2071 2.36741 49.0711 0.533382C51.5227 -0.298873 52.8179 0.384968 53.6213 2.78582ZM48.9318 11.3715C48.679 10.6156 48.1382 9.99191 47.4287 9.63757C46.7191 9.28324 45.8989 9.22731 45.1486 9.48206C44.398 9.73684 43.7788 10.2814 43.427 10.996C43.0753 11.7107 43.0197 12.5368 43.2726 13.2927C43.5256 14.0485 44.0663 14.6722 44.7758 15.0266C45.4852 15.3809 46.3054 15.4368 47.0559 15.1821C47.8065 14.9273 48.4257 14.3827 48.7774 13.6681C49.1293 12.9535 49.1847 12.1274 48.9318 11.3715ZM35.9448 35.1847C37.143 34.5241 40.0031 32.8447 40.684 31.4634C40.8931 31.0387 41.017 30.5767 41.0488 30.1039C41.0806 29.631 41.0196 29.1564 40.8693 28.7073C40.719 28.258 40.4823 27.843 40.1728 27.4862C39.8633 27.1291 39.487 26.837 39.0654 26.6263C38.6438 26.4158 38.1851 26.2909 37.7156 26.2589C37.2461 26.227 36.7749 26.2883 36.329 26.4397C35.4283 26.7455 34.6852 27.399 34.263 28.2566C33.5836 29.6388 33.9866 32.9486 34.1909 34.3088L34.4477 36.0065L35.9448 35.1847Z" fill="#C9F8C9"/>
<path d="M102.603 83.0172V51.4994H111.518V75.9482H126.557V83.0172H102.603ZM128.862 83.0172L142.775 51.4994H151.555L165.512 83.0172H156.237L145.341 55.8669H148.853L137.957 83.0172H128.862ZM136.471 76.8938L138.767 70.32H154.166L156.462 76.8938H136.471ZM170.291 83.0172V51.4994H186.41C190.553 51.4994 193.644 52.2648 195.685 53.7957C197.727 55.2965 198.747 57.2777 198.747 59.7391C198.747 61.36 198.312 62.7858 197.441 64.0165C196.601 65.2172 195.4 66.1777 193.839 66.8981C192.309 67.5885 190.478 67.9337 188.346 67.9337L189.247 65.7725C191.468 65.7725 193.404 66.1177 195.055 66.8081C196.706 67.4684 197.982 68.444 198.882 69.7347C199.813 70.9954 200.278 72.5413 200.278 74.3723C200.278 77.1039 199.167 79.2351 196.946 80.7659C194.755 82.2668 191.543 83.0172 187.311 83.0172H170.291ZM179.116 76.5786H186.59C188.121 76.5786 189.277 76.3234 190.057 75.8131C190.868 75.2728 191.273 74.4624 191.273 73.3818C191.273 72.3012 190.868 71.5057 190.057 70.9954C189.277 70.4551 188.121 70.185 186.59 70.185H178.486V64.0165H185.24C186.74 64.0165 187.866 63.7613 188.616 63.251C189.367 62.7408 189.742 61.9753 189.742 60.9547C189.742 59.9342 189.367 59.1837 188.616 58.7035C187.866 58.1932 186.74 57.938 185.24 57.938H179.116V76.5786ZM218.223 83.6476C215.642 83.6476 213.15 83.3324 210.749 82.702C208.378 82.0417 206.442 81.2012 204.941 80.1806L207.867 73.6069C209.278 74.5074 210.899 75.2578 212.73 75.8582C214.591 76.4285 216.437 76.7136 218.268 76.7136C219.499 76.7136 220.489 76.6086 221.24 76.3985C221.99 76.1583 222.531 75.8582 222.861 75.498C223.221 75.1077 223.401 74.6575 223.401 74.1472C223.401 73.4268 223.071 72.8565 222.411 72.4362C221.75 72.016 220.895 71.6708 219.844 71.4006C218.793 71.1305 217.623 70.8603 216.332 70.5902C215.071 70.32 213.796 69.9748 212.505 69.5546C211.244 69.1344 210.089 68.5941 209.038 67.9337C207.987 67.2433 207.132 66.3578 206.472 65.2772C205.811 64.1666 205.481 62.7708 205.481 61.0898C205.481 59.1987 205.991 57.4878 207.012 55.9569C208.062 54.4261 209.623 53.1954 211.694 52.2648C213.766 51.3343 216.347 50.869 219.439 50.869C221.51 50.869 223.536 51.1092 225.517 51.5894C227.528 52.0397 229.314 52.7151 230.875 53.6156L228.129 60.2343C226.628 59.4239 225.142 58.8235 223.671 58.4333C222.2 58.0131 220.775 57.803 219.394 57.803C218.163 57.803 217.173 57.938 216.422 58.2082C215.672 58.4483 215.131 58.7785 214.801 59.1987C214.471 59.619 214.306 60.0993 214.306 60.6396C214.306 61.33 214.621 61.8853 215.251 62.3055C215.912 62.6957 216.767 63.0259 217.818 63.2961C218.899 63.5362 220.069 63.7913 221.33 64.0615C222.621 64.3316 223.896 64.6768 225.157 65.0971C226.448 65.4873 227.618 66.0276 228.669 66.718C229.72 67.3784 230.56 68.2639 231.19 69.3745C231.851 70.4551 232.181 71.8209 232.181 73.4718C232.181 75.3029 231.656 76.9988 230.605 78.5597C229.585 80.0906 228.039 81.3213 225.968 82.2518C223.926 83.1823 221.345 83.6476 218.223 83.6476Z" fill="#C9F8C9"/>
<path d="M107.079 90.587H108.637V98.9727H107.079V90.587ZM102.743 98.9727H101.185V90.587H102.743V98.9727ZM107.199 95.3788H102.611V94.0491H107.199V95.3788ZM115.328 99.0925C114.178 99.0925 113.276 98.769 112.621 98.1221C111.974 97.4752 111.65 96.5408 111.65 95.3189V90.587H113.208V95.259C113.208 96.1215 113.391 96.7485 113.759 97.1398C114.134 97.5311 114.661 97.7268 115.34 97.7268C116.019 97.7268 116.542 97.5311 116.909 97.1398C117.277 96.7485 117.46 96.1215 117.46 95.259V90.587H118.994V95.3189C118.994 96.5408 118.666 97.4752 118.011 98.1221C117.365 98.769 116.47 99.0925 115.328 99.0925ZM122.013 98.9727V90.587H125.943C126.949 90.587 127.716 90.7867 128.243 91.186C128.77 91.5773 129.033 92.1044 129.033 92.7673C129.033 93.2145 128.929 93.5979 128.722 93.9173C128.514 94.2288 128.235 94.4724 127.883 94.6481C127.54 94.8158 127.164 94.8996 126.757 94.8996L126.973 94.4684C127.444 94.4684 127.867 94.5562 128.243 94.7319C128.618 94.8996 128.914 95.1472 129.129 95.4746C129.353 95.8021 129.465 96.2094 129.465 96.6966C129.465 97.4153 129.189 97.9744 128.638 98.3737C128.087 98.773 127.268 98.9727 126.182 98.9727H122.013ZM123.571 97.7507H126.086C126.669 97.7507 127.117 97.6549 127.428 97.4632C127.74 97.2716 127.895 96.9641 127.895 96.5408C127.895 96.1255 127.74 95.822 127.428 95.6304C127.117 95.4307 126.669 95.3309 126.086 95.3309H123.451V94.121H125.775C126.318 94.121 126.733 94.0251 127.021 93.8335C127.316 93.6418 127.464 93.3543 127.464 92.9709C127.464 92.5796 127.316 92.2881 127.021 92.0964C126.733 91.9048 126.318 91.8089 125.775 91.8089H123.571V97.7507ZM136.114 98.9727V90.587H139.78C140.691 90.587 141.489 90.7627 142.176 91.1141C142.863 91.4655 143.398 91.9527 143.781 92.5756C144.165 93.1985 144.356 93.9333 144.356 94.7798C144.356 95.6184 144.165 96.3531 143.781 96.9841C143.398 97.607 142.863 98.0942 142.176 98.4456C141.489 98.797 140.691 98.9727 139.78 98.9727H136.114ZM137.672 97.6549H139.708C140.339 97.6549 140.882 97.5351 141.338 97.2955C141.801 97.0559 142.156 96.7205 142.404 96.2892C142.659 95.858 142.787 95.3548 142.787 94.7798C142.787 94.1968 142.659 93.6937 142.404 93.2704C142.156 92.8392 141.801 92.5037 141.338 92.2641C140.882 92.0245 140.339 91.9048 139.708 91.9048H137.672V97.6549ZM148.288 94.073H152.457V95.3548H148.288V94.073ZM148.408 97.6669H153.139V98.9727H146.85V90.587H152.972V91.8928H148.408V97.6669ZM159.863 98.9727V90.587H161.421V98.9727H159.863ZM164.527 98.9727V90.587H165.809L171.068 97.044H170.433V90.587H171.979V98.9727H170.697L165.438 92.5157H166.073V98.9727H164.527ZM178.994 99.0925C178.339 99.0925 177.736 98.9846 177.185 98.769C176.634 98.5534 176.154 98.2539 175.747 97.8705C175.34 97.4792 175.024 97.024 174.801 96.5049C174.577 95.9778 174.465 95.4028 174.465 94.7798C174.465 94.1569 174.577 93.5859 174.801 93.0668C175.024 92.5397 175.34 92.0844 175.747 91.7011C176.154 91.3098 176.634 91.0063 177.185 90.7907C177.736 90.575 178.335 90.4672 178.982 90.4672C179.636 90.4672 180.235 90.575 180.778 90.7907C181.33 91.0063 181.809 91.3098 182.216 91.7011C182.623 92.0844 182.939 92.5397 183.162 93.0668C183.386 93.5859 183.498 94.1569 183.498 94.7798C183.498 95.4028 183.386 95.9778 183.162 96.5049C182.939 97.032 182.623 97.4872 182.216 97.8705C181.809 98.2539 181.33 98.5534 180.778 98.769C180.235 98.9846 179.64 99.0925 178.994 99.0925ZM178.982 97.7268C179.405 97.7268 179.796 97.6549 180.156 97.5112C180.515 97.3674 180.826 97.1638 181.09 96.9002C181.353 96.6287 181.557 96.3172 181.701 95.9658C181.853 95.6064 181.928 95.2111 181.928 94.7798C181.928 94.3486 181.853 93.9572 181.701 93.6058C181.557 93.2465 181.353 92.935 181.09 92.6714C180.826 92.3999 180.515 92.1923 180.156 92.0485C179.796 91.9048 179.405 91.8329 178.982 91.8329C178.558 91.8329 178.167 91.9048 177.808 92.0485C177.456 92.1923 177.145 92.3999 176.873 92.6714C176.61 92.935 176.402 93.2465 176.25 93.6058C176.106 93.9572 176.035 94.3486 176.035 94.7798C176.035 95.2031 176.106 95.5944 176.25 95.9538C176.402 96.3132 176.61 96.6287 176.873 96.9002C177.137 97.1638 177.448 97.3674 177.808 97.5112C178.167 97.6549 178.558 97.7268 178.982 97.7268ZM188.209 98.9727L184.544 90.587H186.233L189.503 98.17H188.533L191.839 90.587H193.397L189.743 98.9727H188.209ZM193.665 98.9727L197.439 90.587H198.972L202.757 98.9727H201.128L197.882 91.4136H198.505L195.27 98.9727H193.665ZM195.402 97.032L195.821 95.8101H200.35L200.769 97.032H195.402ZM208.427 99.0925C207.788 99.0925 207.193 98.9886 206.642 98.781C206.099 98.5654 205.624 98.2659 205.216 97.8825C204.817 97.4912 204.506 97.032 204.282 96.5049C204.058 95.9778 203.947 95.4028 203.947 94.7798C203.947 94.1569 204.058 93.5819 204.282 93.0548C204.506 92.5277 204.821 92.0725 205.228 91.6891C205.636 91.2978 206.111 90.9983 206.654 90.7907C207.197 90.575 207.792 90.4672 208.439 90.4672C209.126 90.4672 209.753 90.587 210.32 90.8266C210.887 91.0582 211.366 91.4056 211.757 91.8688L210.751 92.8152C210.447 92.4878 210.108 92.2442 209.733 92.0844C209.357 91.9167 208.95 91.8329 208.511 91.8329C208.071 91.8329 207.668 91.9048 207.301 92.0485C206.941 92.1923 206.626 92.3959 206.354 92.6595C206.091 92.923 205.883 93.2345 205.731 93.5939C205.588 93.9532 205.516 94.3486 205.516 94.7798C205.516 95.2111 205.588 95.6064 205.731 95.9658C205.883 96.3252 206.091 96.6367 206.354 96.9002C206.626 97.1638 206.941 97.3674 207.301 97.5112C207.668 97.6549 208.071 97.7268 208.511 97.7268C208.95 97.7268 209.357 97.6469 209.733 97.4872C210.108 97.3195 210.447 97.0679 210.751 96.7325L211.757 97.6908C211.366 98.1461 210.887 98.4935 210.32 98.7331C209.753 98.9727 209.122 99.0925 208.427 99.0925ZM207.864 101.704C207.648 101.704 207.449 101.68 207.265 101.632C207.081 101.592 206.913 101.532 206.762 101.452L207.037 100.746C207.165 100.81 207.293 100.857 207.421 100.889C207.556 100.921 207.7 100.937 207.852 100.937C208.083 100.937 208.247 100.897 208.343 100.817C208.439 100.738 208.487 100.634 208.487 100.506C208.487 100.386 208.435 100.29 208.331 100.219C208.235 100.147 208.075 100.111 207.852 100.111H207.48L207.804 98.8888H208.619L208.451 99.5597C208.802 99.5996 209.062 99.7114 209.229 99.8951C209.405 100.087 209.493 100.31 209.493 100.566C209.493 100.917 209.345 101.193 209.05 101.393C208.754 101.6 208.359 101.704 207.864 101.704ZM212.726 98.9727L216.5 90.587H218.033L221.819 98.9727H220.19L216.943 91.4136H217.566L214.332 98.9727H212.726ZM214.464 97.032L214.883 95.8101H219.411L219.83 97.032H214.464ZM218.129 89.9042C217.938 89.9042 217.762 89.8682 217.602 89.7964C217.45 89.7165 217.311 89.6247 217.183 89.5208C217.063 89.409 216.947 89.3132 216.835 89.2333C216.724 89.1535 216.612 89.1135 216.5 89.1135C216.332 89.1135 216.197 89.1774 216.093 89.3052C215.989 89.433 215.929 89.6087 215.913 89.8323H215.11C215.126 89.3371 215.246 88.9458 215.47 88.6583C215.701 88.3708 216.013 88.227 216.404 88.227C216.596 88.227 216.772 88.267 216.931 88.3468C217.091 88.4267 217.231 88.5185 217.351 88.6224C217.478 88.7262 217.598 88.818 217.71 88.8979C217.822 88.9778 217.93 89.0177 218.033 89.0177C218.201 89.0177 218.337 88.9578 218.441 88.838C218.553 88.7182 218.612 88.5505 218.62 88.3349H219.423C219.415 88.7981 219.295 89.1774 219.064 89.4729C218.832 89.7604 218.521 89.9042 218.129 89.9042ZM227.536 99.0925C226.881 99.0925 226.278 98.9846 225.727 98.769C225.176 98.5534 224.697 98.2539 224.29 97.8705C223.882 97.4792 223.567 97.024 223.343 96.5049C223.12 95.9778 223.008 95.4028 223.008 94.7798C223.008 94.1569 223.12 93.5859 223.343 93.0668C223.567 92.5397 223.882 92.0844 224.29 91.7011C224.697 91.3098 225.176 91.0063 225.727 90.7907C226.278 90.575 226.877 90.4672 227.524 90.4672C228.179 90.4672 228.778 90.575 229.321 90.7907C229.872 91.0063 230.351 91.3098 230.759 91.7011C231.166 92.0844 231.481 92.5397 231.705 93.0668C231.929 93.5859 232.041 94.1569 232.041 94.7798C232.041 95.4028 231.929 95.9778 231.705 96.5049C231.481 97.032 231.166 97.4872 230.759 97.8705C230.351 98.2539 229.872 98.5534 229.321 98.769C228.778 98.9846 228.183 99.0925 227.536 99.0925ZM227.524 97.7268C227.948 97.7268 228.339 97.6549 228.698 97.5112C229.058 97.3674 229.369 97.1638 229.633 96.9002C229.896 96.6287 230.1 96.3172 230.244 95.9658C230.395 95.6064 230.471 95.2111 230.471 94.7798C230.471 94.3486 230.395 93.9572 230.244 93.6058C230.1 93.2465 229.896 92.935 229.633 92.6714C229.369 92.3999 229.058 92.1923 228.698 92.0485C228.339 91.9048 227.948 91.8329 227.524 91.8329C227.101 91.8329 226.71 91.9048 226.35 92.0485C225.999 92.1923 225.687 92.3999 225.416 92.6714C225.152 92.935 224.945 93.2465 224.793 93.6058C224.649 93.9572 224.577 94.3486 224.577 94.7798C224.577 95.2031 224.649 95.5944 224.793 95.9538C224.945 96.3132 225.152 96.6287 225.416 96.9002C225.679 97.1638 225.991 97.3674 226.35 97.5112C226.71 97.6549 227.101 97.7268 227.524 97.7268Z" fill="#C9F8C9"/>
</svg>
