<svg width="322" height="304" viewBox="0 0 322 304" fill="none" xmlns="http://www.w3.org/2000/svg">
<g clip-path="url(#clip0_88_672)">
<path d="M283.32 207.438C283.32 207.438 283.32 177.703 283.32 147.35C263.475 171.967 241.254 193.984 217.066 213.039C217.134 219.644 217.175 226.278 216.137 232.791C215.838 234.694 215.442 236.596 214.922 238.513C212.969 245.669 209.814 252.503 205.826 258.787C199.27 269.147 190.05 279.597 179.383 286.004C178.386 286.607 177.362 287.143 176.337 287.678C176.01 287.839 175.682 288.012 175.355 288.174C156.425 297.38 129.299 302.447 127.06 302.794C133.601 303.585 140.199 304 146.81 304C156.821 304 166.806 303.128 176.638 301.267C196.13 297.581 215.591 290.492 232.704 280.603C246.99 272.335 260.128 261.615 269.608 248.148C273.87 242.091 277.366 235.484 279.742 228.501C280.903 225.086 281.791 221.587 282.391 218.036C282.542 217.153 283.485 207.438 283.306 207.451L283.32 207.438Z" fill="#078438"/>
<path d="M1.79594 281.272C1.49758 281.219 1.19964 281.159 0.901719 281.1C0.601293 281.039 0.300869 280.979 0 280.925C12.4991 275.938 24.7897 269.864 36.77 262.777C32.0507 258.303 27.7466 253.423 24.011 248.12C19.7353 242.064 16.2523 235.469 13.8771 228.476C12.7161 225.059 11.8277 221.562 11.2277 218.011C11.0773 217.139 10.1339 207.411 10.3109 207.424V83.4181H76.6206V207.008C76.6206 208.781 76.6002 210.561 76.5797 212.342C76.5012 219.173 76.4223 226.039 77.4949 232.776C77.54 233.065 77.5871 233.351 77.6366 233.638C125.595 193.163 165.53 135.396 189.244 66.2378L231.843 52.7179V52.7302C206.147 128.778 160.851 191.189 106.788 232.183C179.126 190.466 236.818 112.937 256.921 18.038L322 0C319.281 13.5476 315.923 27.163 311.715 40.7904C275.286 158.989 191.73 246.065 99.9934 274.396C104.32 278.889 109.117 282.908 114.249 285.989C114.391 286.072 114.533 286.153 114.673 286.236C114.991 286.421 115.306 286.604 115.629 286.78C120.3 289.381 125.367 291.256 130.556 292.583C136.019 293.978 141.757 295.034 147.424 294.969H147.942C153.542 294.834 159.292 293.682 164.674 292.181V292.154C168.349 291.137 171.938 289.796 175.369 288.135C156.425 297.341 129.299 302.405 127.075 302.754C123.699 302.353 120.326 301.869 116.981 301.239C98.6933 297.782 80.4304 291.329 64.1104 282.375C43.3493 285.201 22.4321 284.936 1.78929 281.273L1.79594 281.272Z" fill="#078438"/>
</g>
<defs>
<clipPath id="clip0_88_672">
<rect width="322" height="304" fill="white"/>
</clipPath>
</defs>
</svg>
