<svg width="519" height="490" viewBox="0 0 519 490" fill="none" xmlns="http://www.w3.org/2000/svg">
<g clip-path="url(#clip0_404_2190)">
<path d="M456.656 334.357C456.656 334.357 456.656 286.429 456.656 237.505C424.67 277.184 388.854 312.671 349.867 343.385C349.977 354.031 350.044 364.724 348.369 375.222C347.889 378.29 347.249 381.356 346.411 384.445C343.264 395.979 338.178 406.995 331.751 417.123C321.184 433.822 306.323 450.667 289.129 460.992C287.523 461.965 285.872 462.829 284.22 463.691C283.694 463.95 283.164 464.23 282.638 464.492C252.126 479.33 208.404 487.496 204.796 488.055C215.339 489.33 225.974 490 236.628 490C252.765 490 268.857 488.594 284.706 485.595C316.122 479.654 347.49 468.227 375.073 452.288C398.099 438.96 419.275 421.682 434.554 399.976C441.424 390.212 447.058 379.563 450.888 368.308C452.76 362.803 454.192 357.164 455.158 351.44C455.401 350.016 456.922 334.357 456.633 334.378L456.656 334.357Z" fill="#F0F5F2"/>
<path d="M2.89469 453.365C2.41379 453.281 1.93358 453.183 1.45339 453.088C0.969165 452.991 0.48494 452.893 0 452.806C20.1461 444.769 39.9561 434.979 59.266 423.555C51.6594 416.344 44.7219 408.478 38.701 399.93C31.8093 390.168 26.1954 379.54 22.3671 368.267C20.4958 362.759 19.0638 357.123 18.0968 351.399C17.8543 349.993 16.3339 334.313 16.6192 334.334V134.457H123.497V333.664C123.497 336.522 123.464 339.39 123.431 342.261C123.305 353.272 123.178 364.339 124.906 375.199C124.979 375.663 125.055 376.125 125.135 376.587C202.434 311.348 266.802 218.237 305.024 106.765L373.685 84.9729V84.9927C332.267 207.57 259.26 308.166 172.121 374.242C288.715 307.002 381.703 182.037 414.106 29.0744L519 0C514.618 21.8366 509.205 43.7824 502.423 65.7477C443.707 256.266 309.03 396.618 161.169 442.283C168.143 449.525 175.874 456.003 184.146 460.969C184.376 461.103 184.604 461.234 184.83 461.367C185.343 461.665 185.851 461.96 186.371 462.244C193.899 466.436 202.066 469.458 210.43 471.598C219.236 473.845 228.484 475.549 237.618 475.444H238.454C247.479 475.226 256.746 473.368 265.421 470.949V470.905C271.345 469.266 277.131 467.106 282.661 464.428C252.126 479.266 208.405 487.429 204.819 487.991C199.379 487.345 193.942 486.565 188.55 485.549C159.074 479.977 129.638 469.576 103.333 455.143C69.8704 459.7 36.1561 459.271 2.88398 453.368L2.89469 453.365Z" fill="#F0F5F2"/>
</g>
<defs>
<clipPath id="clip0_404_2190">
<rect width="519" height="490" fill="white"/>
</clipPath>
</defs>
</svg>
